<svg xmlns="http://www.w3.org/2000/svg" viewBox="7.010000228881836 5 87.93101501464844 90" width="128" height="128">
  <defs>
    <filter id="shadow" x="-50%" y="-50%" width="200%" height="200%">
      <feDropShadow dx="2" dy="4" stdDeviation="3" flood-color="#000000" flood-opacity="0.3"/>
    </filter>
    <linearGradient gradientUnits="userSpaceOnUse" id="SvgjsLinearGradient1000" x1="6.492753982543972" y1="94.4827537536621" x2="95.45826148986816" y2="5.51724624633789">
      <stop stop-color="#2563eb" offset="0.05"></stop>
      <stop stop-color="#1d4ed8" offset="0.95"></stop>
    </linearGradient>
  </defs>
  <g fill="url(#SvgjsLinearGradient1000)" filter="url(#shadow)">
    <path d="M50.98 5c-2.521 0-5 .21-7.411.63C22.84 9.16 7.01 27.26 7.01 48.97c0 14.129 6.7 26.73 17.1 34.78-9.84.98-16.58 2.98-16.58 5.3 0 3.29 13.55 5.95 30.26 5.95 15.96 0 30.71-2.94 30.39-5.59A44.156 44.156 0 0 0 85.85 75.7a43.699 43.699 0 0 0 9.091-26.73C94.94 24.73 75.21 5 50.98 5zm20.17 77.08c-2.79.6-5.68.92-8.65.92-22.64 0-41-18.36-41-41 0-10 3.58-19.17 9.54-26.29a38.47 38.47 0 0 1 19.94-5.54c21.39 0 38.789 17.4 38.789 38.8.001 14-7.459 26.3-18.619 33.11z"></path>
  </g>
</svg>